<?xml version="1.0" standalone="no"?>
<!DOCTYPE svg PUBLIC "-//W3C//DTD SVG 20010904//EN"
 "http://www.w3.org/TR/2001/REC-SVG-20010904/DTD/svg10.dtd">
<svg version="1.0" xmlns="http://www.w3.org/2000/svg"
 width="400.000000pt" height="400.000000pt" viewBox="0 0 400.000000 400.000000"
 preserveAspectRatio="xMidYMid meet">
<metadata>
Created by potrace 1.11, written by Peter Selinger 2001-2013
</metadata>
<g transform="translate(0.000000,400.000000) scale(0.100000,-0.100000)"
fill="#000000" stroke="none">
<path d="M1743 3934 c-429 -62 -811 -253 -1113 -554 -276 -277 -451 -605 -537
-1007 -26 -120 -27 -144 -27 -373 0 -229 1 -253 27 -373 86 -402 261 -730 537
-1007 277 -276 605 -451 1007 -537 120 -26 144 -27 373 -27 229 0 253 1 373
27 402 86 730 261 1007 537 276 277 451 605 537 1007 26 120 27 144 27 373 0
229 -1 253 -27 373 -86 402 -261 730 -537 1007 -306 305 -686 493 -1121 555
-128 18 -400 18 -526 -1z m527 -359 c331 -57 607 -196 849 -429 492 -475 626
-1204 335 -1825 -156 -334 -431 -608 -765 -765 -621 -291 -1350 -157 -1825
335 -298 310 -447 680 -447 1109 0 445 167 840 484 1146 275 265 597 410 994
448 70 7 287 -4 375 -19z"/>
<path d="M1550 2000 l0 -840 655 0 655 0 0 195 0 195 -395 0 -395 0 0 645 0
645 -260 0 -260 0 0 -840z"/>
</g>
</svg>
